<?xml version="1.0" standalone="no"?><!DOCTYPE svg PUBLIC "-//W3C//DTD SVG 1.1//EN" "http://www.w3.org/Graphics/SVG/1.1/DTD/svg11.dtd"><svg t="1723432481606" class="icon" viewBox="0 0 1332 1024" version="1.1" xmlns="http://www.w3.org/2000/svg" p-id="6940" xmlns:xlink="http://www.w3.org/1999/xlink" width="260.15625" height="200"><path d="M568.9999 4.737922C568.9999 4.737922 462.732376-0.098819 394.96774 87.485472 327.169542 175.067978 378.085318 308.84583 410.22793 377.852392 442.370541 446.860739 611.972321 717.654026 618.20394 723.613394 624.387077 729.578112 631.836298 727.072287 632.24279 721.712604 632.65301 716.393974 651.614505 328.24634 636.354314 232.537751 621.094129 136.829161 575.910246 15.235972 568.9999 4.737922L568.9999 4.737922ZM201.726091 185.180516C189.579846 186.479833 102.40434 273.414466 94.55049 358.409047 86.653752 443.400059 123.034683 499.963167 224.610781 567.627576 326.860012 640.134083 569.865093 773.52107 574.327168 762.028902 578.796703 750.572426 480.163002 575.314606 399.444734 447.849505 318.732059 320.384404 213.818262 183.884769 201.726091 185.180516L201.726091 185.180516ZM234.405719 969.178875C307.946999 1002.059796 422.512158 928.214707 454.205391 906.738504 483.679708 884.225347 538.121513 842.831043 538.121513 842.831043L121.414314 853.978752C121.414314 853.978752 160.864438 936.294385 234.405719 969.178875L234.405719 969.178875ZM244.87379 632.443489C170.293906 595.113119 16.856662 509.343947 10.854396 510.98594 4.852129 512.62258-18.26191 619.311109 29.722657 699.722388 77.707224 780.131881 171.155369 804.718945 214.040154 811.288704 262.2578 818.161879 545.753472 815.08671 543.85154 809.387919 542.182692 804.415534 319.496561 669.734589 244.87379 632.443489L244.87379 632.443489ZM936.23828 87.487257C868.477373-0.097035 762.211717 4.739707 762.211717 4.739707 755.306967 15.235972 710.115625 136.829161 694.855434 232.539536 679.595249 328.248125 698.60522 716.395761 699.013576 721.714391 699.423795 727.072287 706.822676 729.579899 713.044966 723.615176 719.229967 717.654026 888.882094 446.862524 921.024707 377.854177 953.120701 308.84583 1004.038344 175.069763 936.23828 87.487257L936.23828 87.487257ZM1320.35349 510.98594C1314.351222 509.342162 1160.915845 595.113119 1086.334095 632.443489 1011.756078 669.734589 789.028925 804.413752 787.397366 809.387919 785.460009 815.08671 1068.955679 818.161879 1117.171461 811.288704 1160.05438 804.718945 1253.498798 780.131881 1301.487094 699.722388 1349.516411 619.311109 1326.353894 512.62258 1320.35349 510.98594L1320.35349 510.98594ZM877.008087 906.738504C908.697595 928.214707 1023.313096 1002.059796 1096.85438 969.178875 1170.395658 936.292603 1209.849513 853.978752 1209.849513 853.978752L793.140449 842.831043C793.140449 842.831043 847.582254 884.227128 877.008087 906.738504L877.008087 906.738504ZM1236.713334 358.409047C1228.809139 273.414466 1141.641093 186.479833 1129.537736 185.180516 1117.397084 183.884769 1012.481418 320.384404 931.770609 447.85129 851.050476 575.316393 752.416778 750.574213 756.888177 762.030684 761.361439 773.52107 1004.401951 640.134083 1106.606428 567.629363 1208.178796 499.963167 1244.610074 443.400059 1236.713334 358.409047L1236.713334 358.409047Z" fill="#e93720" p-id="6941"></path></svg>